<svg xmlns="http://www.w3.org/2000/svg" xmlns:xlink="http://www.w3.org/1999/xlink" width="500" zoomAndPan="magnify" viewBox="0 0 375 243.75" height="325" preserveAspectRatio="xMidYMid meet" version="1.0"><defs><g/><clipPath id="6c820d6ee2"><path d="M 0.191406 0 L 374.808594 0 L 374.808594 243.5 L 0.191406 243.5 Z M 0.191406 0 " clip-rule="nonzero"/></clipPath><clipPath id="f4202ca492"><path d="M 145 90 L 240 90 L 240 170 L 145 170 Z M 145 90 " clip-rule="nonzero"/></clipPath><clipPath id="4a8c1e7033"><path d="M 157.945312 73.566406 L 240.644531 91.691406 L 222.519531 174.390625 L 139.820312 156.265625 Z M 157.945312 73.566406 " clip-rule="nonzero"/></clipPath><clipPath id="2b2699e2f0"><path d="M 157.945312 73.566406 L 240.644531 91.691406 L 222.519531 174.390625 L 139.820312 156.265625 Z M 157.945312 73.566406 " clip-rule="nonzero"/></clipPath><clipPath id="8dffc94d82"><path d="M 157.945312 73.566406 L 240.644531 91.691406 L 222.519531 174.390625 L 139.820312 156.265625 Z M 157.945312 73.566406 " clip-rule="nonzero"/></clipPath><clipPath id="3aa9ae2a18"><path d="M 121 83 L 271 83 L 271 207 L 121 207 Z M 121 83 " clip-rule="nonzero"/></clipPath><clipPath id="5ba176210b"><path d="M 305.808594 156.875 L 168.269531 243.570312 L 121.527344 169.414062 L 259.066406 82.71875 Z M 305.808594 156.875 " clip-rule="nonzero"/></clipPath><clipPath id="679955ab4a"><path d="M 305.808594 156.875 L 168.269531 243.570312 L 121.527344 169.414062 L 259.066406 82.71875 Z M 305.808594 156.875 " clip-rule="nonzero"/></clipPath></defs><g clip-path="url(#6c820d6ee2)"><path fill="#ffffff" d="M 0.191406 0 L 374.808594 0 L 374.808594 243.5 L 0.191406 243.5 Z M 0.191406 0 " fill-opacity="1" fill-rule="nonzero"/><path fill="#ffffff" d="M 0.191406 0 L 374.808594 0 L 374.808594 243.5 L 0.191406 243.5 Z M 0.191406 0 " fill-opacity="1" fill-rule="nonzero"/></g><g fill="#3d3b3a" fill-opacity="1"><g transform="translate(113.601004, 138.53468)"><g><path d="M -10.0625 0.453125 L -10.5 -3.140625 L -9.859375 -3.296875 L -9.5 -2.25 C -9.445312 -2.257812 -9.335938 -2.269531 -9.171875 -2.28125 C -9.015625 -2.289062 -8.765625 -2.3125 -8.421875 -2.34375 C -8.078125 -2.382812 -7.597656 -2.441406 -6.984375 -2.515625 L -4.359375 -2.84375 C -3.648438 -2.9375 -3.09375 -3.117188 -2.6875 -3.390625 C -2.28125 -3.671875 -2 -4.019531 -1.84375 -4.4375 C -1.6875 -4.851562 -1.640625 -5.316406 -1.703125 -5.828125 C -1.765625 -6.328125 -1.921875 -6.75 -2.171875 -7.09375 C -2.421875 -7.445312 -2.785156 -7.695312 -3.265625 -7.84375 C -3.742188 -7.988281 -4.359375 -8.015625 -5.109375 -7.921875 L -7.296875 -7.65625 C -7.804688 -7.59375 -8.253906 -7.53125 -8.640625 -7.46875 C -9.035156 -7.40625 -9.359375 -7.351562 -9.609375 -7.3125 C -9.867188 -7.269531 -10.035156 -7.226562 -10.109375 -7.1875 L -10.1875 -6 L -10.859375 -5.953125 L -11.265625 -9.234375 L -10.609375 -9.390625 L -10.25 -8.359375 C -10.207031 -8.367188 -10.097656 -8.378906 -9.921875 -8.390625 C -9.742188 -8.398438 -9.453125 -8.425781 -9.046875 -8.46875 C -8.648438 -8.507812 -8.109375 -8.578125 -7.421875 -8.671875 L -5.140625 -8.953125 C -4.191406 -9.066406 -3.394531 -9 -2.75 -8.75 C -2.101562 -8.507812 -1.597656 -8.128906 -1.234375 -7.609375 C -0.867188 -7.097656 -0.644531 -6.492188 -0.5625 -5.796875 C -0.40625 -4.566406 -0.625 -3.5625 -1.21875 -2.78125 C -1.820312 -2 -2.742188 -1.53125 -3.984375 -1.375 L -6.8125 -1.03125 C -7.425781 -0.957031 -7.90625 -0.894531 -8.25 -0.84375 C -8.59375 -0.789062 -8.84375 -0.75 -9 -0.71875 C -9.15625 -0.695312 -9.253906 -0.675781 -9.296875 -0.65625 L -9.40625 0.390625 Z M -10.0625 0.453125 "/></g></g></g><g fill="#3d3b3a" fill-opacity="1"><g transform="translate(112.177779, 122.970102)"><g><path d="M 0.0625 -0.890625 L -0.59375 -0.90625 L -0.765625 -1.96875 C -0.847656 -1.976562 -0.96875 -1.988281 -1.125 -2 C -1.289062 -2.019531 -1.488281 -2.035156 -1.71875 -2.046875 C -1.945312 -2.066406 -2.195312 -2.085938 -2.46875 -2.109375 C -2.738281 -2.140625 -3 -2.160156 -3.25 -2.171875 L -6.46875 -2.40625 C -6.988281 -2.445312 -7.425781 -2.476562 -7.78125 -2.5 C -8.144531 -2.519531 -8.425781 -2.523438 -8.625 -2.515625 C -8.820312 -2.515625 -8.953125 -2.515625 -9.015625 -2.515625 L -9.296875 -1.46875 L -9.953125 -1.578125 L -9.6875 -5.296875 C -9.613281 -6.367188 -9.347656 -7.171875 -8.890625 -7.703125 C -8.441406 -8.242188 -7.8125 -8.484375 -7 -8.421875 C -6.4375 -8.390625 -5.945312 -8.203125 -5.53125 -7.859375 C -5.113281 -7.523438 -4.800781 -7.066406 -4.59375 -6.484375 C -4.382812 -5.910156 -4.304688 -5.273438 -4.359375 -4.578125 L -4.4375 -3.484375 L -5.203125 -3.546875 L -5.125 -4.515625 C -5.070312 -5.222656 -5.207031 -5.785156 -5.53125 -6.203125 C -5.863281 -6.617188 -6.34375 -6.847656 -6.96875 -6.890625 C -7.570312 -6.929688 -8.039062 -6.789062 -8.375 -6.46875 C -8.707031 -6.15625 -8.894531 -5.675781 -8.9375 -5.03125 L -9.015625 -4.046875 C -9.003906 -4.035156 -8.960938 -4.023438 -8.890625 -4.015625 C -8.828125 -4.003906 -8.710938 -3.992188 -8.546875 -3.984375 C -8.390625 -3.972656 -8.15625 -3.957031 -7.84375 -3.9375 C -7.539062 -3.914062 -7.132812 -3.882812 -6.625 -3.84375 L -3.15625 -3.59375 C -2.675781 -3.5625 -2.269531 -3.535156 -1.9375 -3.515625 C -1.601562 -3.503906 -1.332031 -3.5 -1.125 -3.5 C -0.925781 -3.5 -0.769531 -3.5 -0.65625 -3.5 L -0.34375 -4.5 L 0.3125 -4.390625 Z M 0.8125 -8.96875 C 0.769531 -8.46875 0.640625 -8.03125 0.421875 -7.65625 C 0.210938 -7.28125 -0.125 -6.925781 -0.59375 -6.59375 C -1.070312 -6.269531 -1.695312 -5.921875 -2.46875 -5.546875 L -4.640625 -4.53125 L -4.84375 -5.828125 L -2.015625 -7.5 C -1.523438 -7.769531 -1.128906 -8.019531 -0.828125 -8.25 C -0.523438 -8.488281 -0.296875 -8.726562 -0.140625 -8.96875 C 0.00390625 -9.21875 0.113281 -9.484375 0.1875 -9.765625 L 0.796875 -9.71875 C 0.816406 -9.59375 0.828125 -9.46875 0.828125 -9.34375 C 0.828125 -9.21875 0.820312 -9.09375 0.8125 -8.96875 Z M 0.8125 -8.96875 "/></g></g></g><g fill="#3d3b3a" fill-opacity="1"><g transform="translate(113.6059, 108.996171)"><g><path d="M 2.046875 -7.71875 C 1.984375 -7.570312 1.921875 -7.40625 1.859375 -7.21875 C 1.804688 -7.03125 1.75 -6.835938 1.6875 -6.640625 C 1.632812 -6.453125 1.59375 -6.285156 1.5625 -6.140625 L 0.21875 -0.828125 L -0.4375 -0.953125 L -0.40625 -2.015625 C -0.445312 -2.035156 -0.566406 -2.078125 -0.765625 -2.140625 C -0.960938 -2.210938 -1.234375 -2.296875 -1.578125 -2.390625 C -1.929688 -2.484375 -2.34375 -2.59375 -2.8125 -2.71875 L -5.9375 -3.5 C -6.425781 -3.625 -6.84375 -3.726562 -7.1875 -3.8125 C -7.53125 -3.90625 -7.800781 -3.972656 -8 -4.015625 C -8.207031 -4.054688 -8.34375 -4.066406 -8.40625 -4.046875 L -8.90625 -3.109375 L -9.515625 -3.296875 L -8.53125 -7.1875 L -7.859375 -7.0625 L -8 -5.640625 C -7.957031 -5.609375 -7.847656 -5.5625 -7.671875 -5.5 C -7.492188 -5.445312 -7.226562 -5.367188 -6.875 -5.265625 C -6.53125 -5.171875 -6.097656 -5.054688 -5.578125 -4.921875 L -2.453125 -4.140625 C -1.878906 -3.992188 -1.378906 -3.867188 -0.953125 -3.765625 C -0.535156 -3.671875 -0.265625 -3.613281 -0.140625 -3.59375 C -0.0664062 -3.738281 -0.0078125 -3.890625 0.03125 -4.046875 C 0.0820312 -4.210938 0.132812 -4.40625 0.1875 -4.625 L 0.515625 -5.875 C 0.578125 -6.125 0.625 -6.335938 0.65625 -6.515625 C 0.6875 -6.703125 0.710938 -6.882812 0.734375 -7.0625 L -0.671875 -8.34375 L -0.3125 -9.046875 Z M 2.046875 -7.71875 "/></g></g></g><g fill="#3d3b3a" fill-opacity="1"><g transform="translate(117.149678, 96.394431)"><g><path d="M 0.015625 -0.046875 L -0.59375 -0.28125 L -0.453125 -1.15625 L -7.0625 -8.03125 L -7.171875 -9.1875 L 2.953125 -8.65625 L 3.53125 -9.328125 L 4.109375 -9.015625 L 2.671875 -5.875 L 2.078125 -6.109375 L 2.28125 -7.15625 L -0.4375 -7.296875 L -1 -7.34375 L -6 -7.578125 L -6.046875 -8.015625 L -2.34375 -4.390625 L -1.953125 -4 L -0.015625 -2.125 L 0.625 -2.953125 L 1.21875 -2.65625 Z M -1.875 -3.546875 L -2.6875 -3.921875 C -2.59375 -4.097656 -2.457031 -4.359375 -2.28125 -4.703125 C -2.113281 -5.046875 -1.921875 -5.46875 -1.703125 -5.96875 C -1.472656 -6.457031 -1.285156 -6.875 -1.140625 -7.21875 C -0.992188 -7.5625 -0.882812 -7.835938 -0.8125 -8.046875 L 0 -7.671875 C -0.164062 -7.316406 -0.332031 -6.96875 -0.5 -6.625 C -0.664062 -6.28125 -0.820312 -5.945312 -0.96875 -5.625 C -1.101562 -5.3125 -1.242188 -4.984375 -1.390625 -4.640625 C -1.546875 -4.304688 -1.707031 -3.941406 -1.875 -3.546875 Z M -1.875 -3.546875 "/></g></g></g><g fill="#3d3b3a" fill-opacity="1"><g transform="translate(123.371064, 83.598864)"><g><path d="M -7.703125 -6.5 L -5.578125 -9.4375 L -5.015625 -9.109375 L -5.4375 -8.09375 C -5.394531 -8.0625 -5.3125 -7.992188 -5.1875 -7.890625 C -5.070312 -7.796875 -4.875 -7.644531 -4.59375 -7.4375 C -4.320312 -7.238281 -3.929688 -6.957031 -3.421875 -6.59375 L -1.28125 -5.0625 C -0.6875 -4.644531 -0.148438 -4.398438 0.328125 -4.328125 C 0.816406 -4.253906 1.257812 -4.316406 1.65625 -4.515625 C 2.0625 -4.710938 2.414062 -5.019531 2.71875 -5.4375 C 3.007812 -5.84375 3.175781 -6.257812 3.21875 -6.6875 C 3.269531 -7.113281 3.171875 -7.539062 2.921875 -7.96875 C 2.671875 -8.40625 2.234375 -8.84375 1.609375 -9.28125 L -0.171875 -10.578125 C -0.585938 -10.867188 -0.957031 -11.125 -1.28125 -11.34375 C -1.613281 -11.570312 -1.882812 -11.753906 -2.09375 -11.890625 C -2.300781 -12.035156 -2.445312 -12.113281 -2.53125 -12.125 L -3.4375 -11.328125 L -3.9375 -11.734375 L -2 -14.421875 L -1.4375 -14.09375 L -1.84375 -13.09375 C -1.8125 -13.070312 -1.722656 -13.003906 -1.578125 -12.890625 C -1.441406 -12.773438 -1.210938 -12.601562 -0.890625 -12.375 C -0.578125 -12.144531 -0.140625 -11.828125 0.421875 -11.421875 L 2.28125 -10.078125 C 3.0625 -9.515625 3.609375 -8.921875 3.921875 -8.296875 C 4.234375 -7.671875 4.347656 -7.046875 4.265625 -6.421875 C 4.179688 -5.796875 3.9375 -5.203125 3.53125 -4.640625 C 2.800781 -3.628906 1.953125 -3.039062 0.984375 -2.875 C 0.015625 -2.707031 -0.976562 -2.988281 -2 -3.71875 L -4.296875 -5.375 C -4.804688 -5.738281 -5.203125 -6.019531 -5.484375 -6.21875 C -5.773438 -6.414062 -5.984375 -6.554688 -6.109375 -6.640625 C -6.242188 -6.722656 -6.332031 -6.769531 -6.375 -6.78125 L -7.1875 -6.09375 Z M -7.703125 -6.5 "/></g></g></g><g fill="#3d3b3a" fill-opacity="1"><g transform="translate(132.89194, 71.202825)"><g><path d="M 0.703125 -1.890625 C 0.660156 -1.960938 0.492188 -2.171875 0.203125 -2.515625 C -0.078125 -2.867188 -0.453125 -3.296875 -0.921875 -3.796875 L -3.125 -6.140625 C -3.644531 -6.679688 -4.066406 -7.109375 -4.390625 -7.421875 C -4.722656 -7.734375 -4.925781 -7.90625 -5 -7.9375 L -5.859375 -7.359375 L -6.3125 -7.859375 L -3.34375 -10.65625 C -2.539062 -11.40625 -1.78125 -11.832031 -1.0625 -11.9375 C -0.351562 -12.039062 0.269531 -11.800781 0.8125 -11.21875 C 1.238281 -10.769531 1.421875 -10.21875 1.359375 -9.5625 C 1.296875 -8.90625 1 -8.289062 0.46875 -7.71875 L 0.234375 -7.671875 C 1.046875 -8.398438 1.816406 -8.800781 2.546875 -8.875 C 3.273438 -8.945312 3.898438 -8.703125 4.421875 -8.140625 C 5.023438 -7.503906 5.226562 -6.726562 5.03125 -5.8125 C 4.832031 -4.90625 4.253906 -4.003906 3.296875 -3.109375 L 0.578125 -0.546875 L 0.109375 -1.015625 Z M 0.375 -4.5 C 0.71875 -4.132812 1.03125 -3.8125 1.3125 -3.53125 C 1.59375 -3.25 1.773438 -3.066406 1.859375 -2.984375 C 1.984375 -3.078125 2.144531 -3.195312 2.34375 -3.34375 C 2.550781 -3.488281 2.707031 -3.609375 2.8125 -3.703125 C 3.457031 -4.316406 3.828125 -4.890625 3.921875 -5.421875 C 4.015625 -5.960938 3.84375 -6.46875 3.40625 -6.9375 C 2.9375 -7.425781 2.414062 -7.632812 1.84375 -7.5625 C 1.28125 -7.488281 0.664062 -7.140625 0 -6.515625 C -0.3125 -6.210938 -0.53125 -6.003906 -0.65625 -5.890625 C -0.78125 -5.773438 -0.875 -5.664062 -0.9375 -5.5625 L -1.546875 -6.21875 C -1.390625 -6.351562 -1.238281 -6.484375 -1.09375 -6.609375 C -0.945312 -6.742188 -0.789062 -6.890625 -0.625 -7.046875 C -0.0703125 -7.566406 0.234375 -8.082031 0.296875 -8.59375 C 0.367188 -9.113281 0.195312 -9.59375 -0.21875 -10.03125 C -0.625 -10.46875 -1.066406 -10.671875 -1.546875 -10.640625 C -2.035156 -10.609375 -2.539062 -10.351562 -3.0625 -9.875 L -3.890625 -9.09375 C -3.847656 -9.03125 -3.675781 -8.835938 -3.375 -8.515625 C -3.082031 -8.191406 -2.753906 -7.832031 -2.390625 -7.4375 Z M 0.375 -4.5 "/></g></g></g><g fill="#3d3b3a" fill-opacity="1"><g transform="translate(143.347765, 61.972196)"><g><path d="M 3.296875 -1.984375 C 2.867188 -1.710938 2.398438 -1.484375 1.890625 -1.296875 C 1.390625 -1.109375 0.945312 -1.007812 0.5625 -1 L -0.734375 -2.765625 L -0.140625 -3.234375 L 1.109375 -2.234375 C 1.421875 -2.222656 1.742188 -2.269531 2.078125 -2.375 C 2.421875 -2.488281 2.742188 -2.644531 3.046875 -2.84375 C 3.503906 -3.144531 3.800781 -3.503906 3.9375 -3.921875 C 4.082031 -4.335938 4.023438 -4.742188 3.765625 -5.140625 C 3.546875 -5.472656 3.265625 -5.679688 2.921875 -5.765625 C 2.578125 -5.859375 2.191406 -5.882812 1.765625 -5.84375 C 1.335938 -5.800781 0.890625 -5.742188 0.421875 -5.671875 C -0.046875 -5.597656 -0.503906 -5.554688 -0.953125 -5.546875 C -1.398438 -5.546875 -1.820312 -5.628906 -2.21875 -5.796875 C -2.625 -5.960938 -2.972656 -6.265625 -3.265625 -6.703125 C -3.566406 -7.160156 -3.703125 -7.65625 -3.671875 -8.1875 C -3.640625 -8.726562 -3.457031 -9.25 -3.125 -9.75 C -2.800781 -10.25 -2.347656 -10.6875 -1.765625 -11.0625 C -1.515625 -11.226562 -1.265625 -11.375 -1.015625 -11.5 C -0.765625 -11.632812 -0.519531 -11.738281 -0.28125 -11.8125 C -0.0390625 -11.894531 0.175781 -11.953125 0.375 -11.984375 L 1.65625 -10.28125 L 1.09375 -9.8125 L -0.109375 -10.75 C -0.535156 -10.738281 -0.988281 -10.578125 -1.46875 -10.265625 C -1.945312 -9.953125 -2.253906 -9.578125 -2.390625 -9.140625 C -2.523438 -8.710938 -2.46875 -8.3125 -2.21875 -7.9375 C -1.988281 -7.59375 -1.695312 -7.367188 -1.34375 -7.265625 C -0.988281 -7.171875 -0.59375 -7.140625 -0.15625 -7.171875 C 0.269531 -7.210938 0.710938 -7.269531 1.171875 -7.34375 C 1.640625 -7.425781 2.097656 -7.472656 2.546875 -7.484375 C 2.992188 -7.492188 3.414062 -7.421875 3.8125 -7.265625 C 4.21875 -7.109375 4.5625 -6.816406 4.84375 -6.390625 C 5.144531 -5.921875 5.273438 -5.421875 5.234375 -4.890625 C 5.203125 -4.359375 5.019531 -3.835938 4.6875 -3.328125 C 4.351562 -2.828125 3.890625 -2.378906 3.296875 -1.984375 Z M 3.296875 -1.984375 "/></g></g></g><g fill="#3d3b3a" fill-opacity="1"><g transform="translate(154.044262, 55.346576)"><g><path d="M 7.640625 -3.25 C 7.453125 -3.1875 7.269531 -3.117188 7.09375 -3.046875 C 6.914062 -2.984375 6.742188 -2.914062 6.578125 -2.84375 C 6.410156 -2.78125 6.25 -2.71875 6.09375 -2.65625 L 2.15625 -0.9375 C 1.9375 -0.84375 1.738281 -0.753906 1.5625 -0.671875 C 1.394531 -0.597656 1.222656 -0.515625 1.046875 -0.421875 L 0.796875 -0.984375 L 2.265625 -11.65625 L 2.546875 -11.15625 L -1 -9.625 C -1.226562 -9.519531 -1.421875 -9.425781 -1.578125 -9.34375 C -1.734375 -9.269531 -1.875 -9.191406 -2 -9.109375 L -1.515625 -7.4375 L -2.1875 -7.15625 L -3.25 -9.546875 C -3.007812 -9.648438 -2.78125 -9.75 -2.5625 -9.84375 C -2.34375 -9.9375 -2.132812 -10.03125 -1.9375 -10.125 L 2.328125 -11.984375 C 2.523438 -12.066406 2.722656 -12.148438 2.921875 -12.234375 C 3.128906 -12.328125 3.332031 -12.421875 3.53125 -12.515625 L 3.78125 -11.953125 L 2.3125 -1.328125 L 2.09375 -1.859375 L 5.75 -3.453125 C 5.851562 -3.492188 5.953125 -3.539062 6.046875 -3.59375 C 6.140625 -3.644531 6.222656 -3.695312 6.296875 -3.75 L 6.203125 -5.78125 L 6.890625 -5.96875 Z M 7.640625 -3.25 "/></g></g></g><g fill="#3d3b3a" fill-opacity="1"><g transform="translate(166.684477, 50.375521)"><g><path d="M 0.8125 -0.21875 L 0.59375 -0.84375 L 1.546875 -1.328125 C 1.554688 -1.390625 1.539062 -1.519531 1.5 -1.71875 C 1.457031 -1.925781 1.394531 -2.195312 1.3125 -2.53125 C 1.226562 -2.875 1.117188 -3.289062 0.984375 -3.78125 L 0.171875 -6.890625 C 0.046875 -7.378906 -0.0625 -7.796875 -0.15625 -8.140625 C -0.257812 -8.492188 -0.34375 -8.769531 -0.40625 -8.96875 C -0.46875 -9.175781 -0.515625 -9.296875 -0.546875 -9.328125 L -1.625 -9.28125 L -1.75 -9.9375 L 1.78125 -10.859375 L 1.96875 -10.234375 L 1.03125 -9.75 C 1.019531 -9.695312 1.03125 -9.578125 1.0625 -9.390625 C 1.09375 -9.203125 1.148438 -8.9375 1.234375 -8.59375 C 1.316406 -8.25 1.429688 -7.804688 1.578125 -7.265625 L 2.390625 -4.15625 C 2.535156 -3.625 2.65625 -3.1875 2.75 -2.84375 C 2.84375 -2.5 2.921875 -2.238281 2.984375 -2.0625 C 3.046875 -1.882812 3.09375 -1.78125 3.125 -1.75 L 4.1875 -1.796875 L 4.34375 -1.140625 Z M 0.8125 -0.21875 "/></g></g></g><g fill="#3d3b3a" fill-opacity="1"><g transform="translate(176.18154, 48.063213)"><g><path d="M 8.28125 -0.765625 C 7.9375 -0.765625 7.640625 -0.753906 7.390625 -0.734375 C 7.140625 -0.722656 6.898438 -0.707031 6.671875 -0.6875 L 0.84375 -0.09375 L 0.71875 -0.734375 L 1.734375 -1.078125 C 1.742188 -1.128906 1.742188 -1.253906 1.734375 -1.453125 C 1.734375 -1.660156 1.71875 -1.941406 1.6875 -2.296875 C 1.65625 -2.660156 1.613281 -3.09375 1.5625 -3.59375 L 1.234375 -6.796875 C 1.179688 -7.304688 1.132812 -7.734375 1.09375 -8.078125 C 1.050781 -8.429688 1.007812 -8.707031 0.96875 -8.90625 C 0.9375 -9.113281 0.910156 -9.242188 0.890625 -9.296875 L -0.171875 -9.421875 L -0.1875 -10.09375 L 5.265625 -10.640625 C 5.421875 -10.660156 5.585938 -10.675781 5.765625 -10.6875 C 5.953125 -10.707031 6.144531 -10.734375 6.34375 -10.765625 C 6.539062 -10.804688 6.75 -10.847656 6.96875 -10.890625 L 7.53125 -8.65625 L 6.765625 -8.46875 L 6.078125 -9.84375 C 5.984375 -9.851562 5.878906 -9.851562 5.765625 -9.84375 C 5.648438 -9.84375 5.53125 -9.835938 5.40625 -9.828125 L 3.5 -9.625 C 3.28125 -9.601562 3.085938 -9.582031 2.921875 -9.5625 C 2.753906 -9.539062 2.59375 -9.507812 2.4375 -9.46875 C 2.445312 -9.414062 2.457031 -9.285156 2.46875 -9.078125 C 2.488281 -8.867188 2.507812 -8.625 2.53125 -8.34375 C 2.550781 -8.070312 2.578125 -7.804688 2.609375 -7.546875 L 3.078125 -2.9375 C 3.097656 -2.71875 3.125 -2.488281 3.15625 -2.25 C 3.1875 -2.019531 3.210938 -1.816406 3.234375 -1.640625 C 3.253906 -1.472656 3.269531 -1.347656 3.28125 -1.265625 C 3.445312 -1.273438 3.613281 -1.28125 3.78125 -1.28125 C 3.957031 -1.289062 4.148438 -1.304688 4.359375 -1.328125 L 6.015625 -1.5 C 6.265625 -1.53125 6.46875 -1.554688 6.625 -1.578125 C 6.789062 -1.597656 6.914062 -1.613281 7 -1.625 C 7.09375 -1.644531 7.171875 -1.664062 7.234375 -1.6875 L 7.9375 -3.390625 L 8.71875 -3.3125 Z M 6.03125 -4.140625 L 5.6875 -5.28125 C 5.632812 -5.289062 5.539062 -5.289062 5.40625 -5.28125 C 5.269531 -5.28125 5.101562 -5.269531 4.90625 -5.25 L 3.625 -5.125 C 3.476562 -5.113281 3.316406 -5.09375 3.140625 -5.0625 C 2.960938 -5.03125 2.78125 -5 2.59375 -4.96875 L 2.5 -5.90625 C 2.6875 -5.914062 2.867188 -5.925781 3.046875 -5.9375 C 3.222656 -5.957031 3.382812 -5.972656 3.53125 -5.984375 L 4.8125 -6.109375 C 5.007812 -6.128906 5.175781 -6.148438 5.3125 -6.171875 C 5.445312 -6.191406 5.539062 -6.21875 5.59375 -6.25 L 5.6875 -7.453125 L 6.421875 -7.53125 L 6.765625 -4.21875 Z M 6.03125 -4.140625 "/></g></g></g><g fill="#3d3b3a" fill-opacity="1"><g transform="translate(190.011894, 47.064797)"><g><path d="M 7.96875 0.671875 C 7.8125 0.640625 7.632812 0.609375 7.4375 0.578125 C 7.238281 0.554688 7.039062 0.535156 6.84375 0.515625 C 6.644531 0.492188 6.46875 0.476562 6.3125 0.46875 L 0.859375 0.0625 L 0.875 -0.59375 L 1.921875 -0.75 C 1.941406 -0.800781 1.960938 -0.925781 1.984375 -1.125 C 2.015625 -1.332031 2.046875 -1.617188 2.078125 -1.984375 C 2.117188 -2.347656 2.15625 -2.769531 2.1875 -3.25 L 2.421875 -6.46875 C 2.460938 -6.976562 2.492188 -7.410156 2.515625 -7.765625 C 2.546875 -8.117188 2.5625 -8.394531 2.5625 -8.59375 C 2.570312 -8.789062 2.5625 -8.914062 2.53125 -8.96875 L 1.53125 -9.296875 L 1.609375 -9.953125 L 5.609375 -9.65625 L 5.59375 -8.96875 L 4.15625 -8.84375 C 4.132812 -8.8125 4.109375 -8.703125 4.078125 -8.515625 C 4.054688 -8.328125 4.023438 -8.054688 3.984375 -7.703125 C 3.953125 -7.347656 3.914062 -6.898438 3.875 -6.359375 L 3.640625 -3.140625 C 3.597656 -2.554688 3.566406 -2.046875 3.546875 -1.609375 C 3.523438 -1.171875 3.515625 -0.890625 3.515625 -0.765625 C 3.671875 -0.722656 3.832031 -0.691406 4 -0.671875 C 4.164062 -0.648438 4.363281 -0.628906 4.59375 -0.609375 L 5.875 -0.515625 C 6.132812 -0.503906 6.351562 -0.492188 6.53125 -0.484375 C 6.71875 -0.484375 6.90625 -0.492188 7.09375 -0.515625 L 8.109375 -2.109375 L 8.84375 -1.890625 Z M 7.96875 0.671875 "/></g></g></g><g fill="#3d3b3a" fill-opacity="1"><g transform="translate(203.187709, 48.540305)"><g><path d="M 1.921875 0.609375 C 1.628906 0.535156 1.398438 0.378906 1.234375 0.140625 C 1.078125 -0.0859375 1.03125 -0.359375 1.09375 -0.671875 C 1.132812 -0.859375 1.21875 -1.015625 1.34375 -1.140625 C 1.46875 -1.273438 1.613281 -1.367188 1.78125 -1.421875 C 1.957031 -1.484375 2.144531 -1.492188 2.34375 -1.453125 C 2.65625 -1.378906 2.890625 -1.222656 3.046875 -0.984375 C 3.203125 -0.753906 3.25 -0.5 3.1875 -0.21875 C 3.125 0.09375 2.972656 0.320312 2.734375 0.46875 C 2.492188 0.625 2.222656 0.671875 1.921875 0.609375 Z M 1.921875 0.609375 "/></g></g></g><g fill="#3d3b3a" fill-opacity="1"><g transform="translate(211.437559, 50.405317)"><g><path d="M 4.484375 -9.03125 L 8.34375 -7.5 C 10.007812 -6.84375 11.148438 -5.925781 11.765625 -4.75 C 12.390625 -3.570312 12.414062 -2.265625 11.84375 -0.828125 C 11.476562 0.0976562 10.9375 0.835938 10.21875 1.390625 C 9.5 1.953125 8.671875 2.28125 7.734375 2.375 C 6.796875 2.46875 5.828125 2.3125 4.828125 1.90625 L 0.78125 0.3125 L 0.96875 -0.3125 L 2.046875 -0.15625 C 2.109375 -0.238281 2.234375 -0.5 2.421875 -0.9375 C 2.617188 -1.375 2.828125 -1.878906 3.046875 -2.453125 L 4.234375 -5.4375 C 4.484375 -6.070312 4.6875 -6.609375 4.84375 -7.046875 C 5 -7.492188 5.082031 -7.757812 5.09375 -7.84375 L 4.203125 -8.4375 Z M 6.546875 -7.203125 C 6.503906 -7.109375 6.445312 -6.976562 6.375 -6.8125 C 6.3125 -6.65625 6.21875 -6.425781 6.09375 -6.125 C 5.96875 -5.820312 5.800781 -5.414062 5.59375 -4.90625 L 4.40625 -1.921875 C 4.28125 -1.597656 4.164062 -1.296875 4.0625 -1.015625 C 3.957031 -0.734375 3.863281 -0.476562 3.78125 -0.25 C 3.707031 -0.0195312 3.644531 0.171875 3.59375 0.328125 C 3.914062 0.503906 4.207031 0.65625 4.46875 0.78125 C 4.738281 0.914062 5 1.035156 5.25 1.140625 C 6.375 1.585938 7.34375 1.625 8.15625 1.25 C 8.976562 0.882812 9.613281 0.132812 10.0625 -1 C 10.34375 -1.6875 10.503906 -2.328125 10.546875 -2.921875 C 10.585938 -3.515625 10.515625 -4.0625 10.328125 -4.5625 C 10.140625 -5.0625 9.835938 -5.5 9.421875 -5.875 C 9.015625 -6.25 8.492188 -6.5625 7.859375 -6.8125 C 7.671875 -6.882812 7.46875 -6.957031 7.25 -7.03125 C 7.03125 -7.101562 6.796875 -7.160156 6.546875 -7.203125 Z M 6.546875 -7.203125 "/></g></g></g><g fill="#3d3b3a" fill-opacity="1"><g transform="translate(226.046318, 56.756944)"><g><path d="M 6.9375 4.5625 C 6.675781 4.363281 6.441406 4.1875 6.234375 4.03125 C 6.023438 3.882812 5.828125 3.75 5.640625 3.625 L 0.703125 0.453125 L 1.015625 -0.125 L 2.03125 0.25 C 2.070312 0.207031 2.15625 0.101562 2.28125 -0.0625 C 2.40625 -0.226562 2.5625 -0.457031 2.75 -0.75 C 2.945312 -1.039062 3.179688 -1.394531 3.453125 -1.8125 L 5.1875 -4.53125 C 5.46875 -4.957031 5.703125 -5.320312 5.890625 -5.625 C 6.085938 -5.9375 6.234375 -6.179688 6.328125 -6.359375 C 6.421875 -6.546875 6.476562 -6.660156 6.5 -6.703125 L 5.734375 -7.46875 L 6.140625 -8 L 10.765625 -5.03125 C 10.890625 -4.945312 11.03125 -4.851562 11.1875 -4.75 C 11.34375 -4.65625 11.507812 -4.554688 11.6875 -4.453125 C 11.863281 -4.359375 12.046875 -4.253906 12.234375 -4.140625 L 11.296875 -2.0625 L 10.59375 -2.375 L 10.890625 -3.90625 C 10.828125 -3.96875 10.742188 -4.03125 10.640625 -4.09375 C 10.546875 -4.164062 10.445312 -4.234375 10.34375 -4.296875 L 8.734375 -5.34375 C 8.546875 -5.457031 8.378906 -5.554688 8.234375 -5.640625 C 8.097656 -5.722656 7.957031 -5.804688 7.8125 -5.890625 C 7.78125 -5.835938 7.707031 -5.722656 7.59375 -5.546875 C 7.476562 -5.378906 7.34375 -5.179688 7.1875 -4.953125 C 7.039062 -4.722656 6.894531 -4.492188 6.75 -4.265625 L 4.234375 -0.375 C 4.117188 -0.195312 4 -0.0078125 3.875 0.1875 C 3.757812 0.394531 3.648438 0.570312 3.546875 0.71875 C 3.453125 0.875 3.382812 0.984375 3.34375 1.046875 C 3.476562 1.148438 3.613281 1.253906 3.75 1.359375 C 3.894531 1.460938 4.054688 1.570312 4.234375 1.6875 L 5.625 2.59375 C 5.84375 2.726562 6.019531 2.832031 6.15625 2.90625 C 6.300781 2.988281 6.410156 3.050781 6.484375 3.09375 C 6.566406 3.132812 6.632812 3.171875 6.6875 3.203125 L 8.328125 2.3125 L 8.875 2.859375 Z M 7.296875 0.53125 L 7.75 -0.5625 C 7.71875 -0.613281 7.644531 -0.679688 7.53125 -0.765625 C 7.425781 -0.847656 7.289062 -0.941406 7.125 -1.046875 L 6.03125 -1.75 C 5.90625 -1.832031 5.765625 -1.914062 5.609375 -2 C 5.460938 -2.082031 5.300781 -2.171875 5.125 -2.265625 L 5.640625 -3.0625 C 5.796875 -2.945312 5.945312 -2.835938 6.09375 -2.734375 C 6.238281 -2.640625 6.375 -2.550781 6.5 -2.46875 L 7.59375 -1.765625 C 7.757812 -1.660156 7.898438 -1.570312 8.015625 -1.5 C 8.128906 -1.4375 8.210938 -1.398438 8.265625 -1.390625 L 9.109375 -2.265625 L 9.71875 -1.859375 L 7.90625 0.9375 Z M 7.296875 0.53125 "/></g></g></g><g clip-path="url(#f4202ca492)"><g clip-path="url(#4a8c1e7033)"><g clip-path="url(#2b2699e2f0)"><g clip-path="url(#8dffc94d82)"><path fill="#000000" d="M 239.277344 96.597656 C 239.273438 95.382812 238.84375 94.171875 238.0625 93.078125 C 237.179688 91.84375 236.222656 91.039062 235.121094 90.636719 C 234.019531 90.238281 232.765625 90.246094 231.292969 90.636719 C 230.867188 90.75 230.445312 90.878906 230.023438 91.011719 C 229.601562 91.144531 229.179688 91.28125 228.761719 91.414062 C 225.234375 92.539062 221.910156 94.0625 218.714844 95.820312 C 215.519531 97.578125 212.453125 99.574219 209.441406 101.644531 C 207.15625 103.21875 204.828125 104.242188 202.417969 104.683594 C 200.003906 105.125 197.507812 104.988281 194.875 104.238281 C 190.824219 103.085938 186.777344 101.90625 182.734375 100.738281 C 178.6875 99.566406 174.640625 98.40625 170.578125 97.296875 C 168.417969 96.707031 166.246094 96.171875 164.0625 95.679688 C 161.878906 95.1875 159.683594 94.734375 157.492188 94.300781 C 156.773438 94.160156 155.949219 94.027344 155.203125 94.144531 C 154.457031 94.261719 153.789062 94.628906 153.382812 95.480469 C 152.96875 96.347656 153.121094 97.066406 153.523438 97.691406 C 153.921875 98.3125 154.566406 98.84375 155.136719 99.332031 C 156.367188 100.378906 157.613281 101.410156 158.871094 102.429688 C 160.128906 103.445312 161.398438 104.445312 162.683594 105.429688 C 164.996094 107.199219 167.339844 108.929688 169.675781 110.671875 C 172.011719 112.410156 174.339844 114.164062 176.625 115.96875 C 178.261719 117.261719 179.035156 118.535156 178.980469 119.796875 C 178.925781 121.054688 178.035156 122.300781 176.339844 123.535156 C 175.507812 124.144531 174.644531 124.714844 173.785156 125.285156 C 172.921875 125.851562 172.0625 126.421875 171.226562 127.027344 C 171.136719 127.09375 170.929688 127.300781 170.894531 127.59375 C 170.851562 127.941406 171.082031 128.339844 171.40625 128.46875 C 171.664062 128.570312 171.933594 128.5 172.027344 128.441406 C 173.117188 127.746094 174.210938 127.046875 175.289062 126.324219 C 176.363281 125.601562 177.421875 124.851562 178.441406 124.054688 C 178.855469 123.734375 179.21875 123.304688 179.527344 122.832031 C 179.839844 122.355469 180.09375 121.835938 180.289062 121.335938 C 180.859375 119.867188 180.765625 118.605469 180.257812 117.503906 C 179.75 116.398438 178.824219 115.453125 177.738281 114.621094 C 175.238281 112.703125 172.714844 110.824219 170.1875 108.945312 C 167.660156 107.066406 165.136719 105.183594 162.640625 103.265625 C 161.300781 102.234375 159.996094 101.160156 158.703125 100.066406 C 157.40625 98.976562 156.125 97.871094 154.824219 96.789062 C 154.933594 96.53125 155.042969 96.269531 155.152344 96.011719 C 155.667969 96.027344 156.199219 96 156.71875 96 C 157.242188 96 157.757812 96.023438 158.25 96.144531 C 160.800781 96.757812 163.34375 97.378906 165.886719 98.023438 C 168.429688 98.660156 170.96875 99.316406 173.5 99.996094 C 177.398438 101.035156 181.28125 102.125 185.171875 103.203125 C 189.058594 104.277344 192.949219 105.339844 196.863281 106.328125 C 198.910156 106.84375 200.929688 106.941406 202.882812 106.601562 C 204.839844 106.261719 206.730469 105.484375 208.519531 104.253906 C 209.179688 103.804688 209.851562 103.378906 210.527344 102.960938 C 211.207031 102.542969 211.886719 102.128906 212.5625 101.707031 C 215.484375 99.863281 218.433594 98.066406 221.488281 96.492188 C 224.542969 94.917969 227.707031 93.5625 231.0625 92.601562 C 232.40625 92.214844 233.46875 92.144531 234.355469 92.421875 C 235.242188 92.695312 235.957031 93.320312 236.605469 94.316406 C 237.171875 95.1875 237.402344 96.125 237.273438 97.082031 C 237.144531 98.039062 236.65625 99.015625 235.777344 99.957031 C 235.175781 100.597656 234.535156 101.207031 233.867188 101.785156 C 233.195312 102.363281 232.5 102.914062 231.792969 103.433594 C 228.539062 105.828125 225.265625 108.199219 221.996094 110.570312 C 218.726562 112.941406 215.457031 115.316406 212.207031 117.710938 C 210.257812 119.144531 208.886719 120.882812 207.964844 122.851562 C 207.046875 124.816406 206.578125 127.007812 206.433594 129.34375 C 206.148438 134.132812 205.890625 138.917969 205.621094 143.707031 C 205.351562 148.496094 205.074219 153.28125 204.738281 158.066406 C 204.652344 159.320312 204.441406 160.570312 204.171875 161.808594 C 203.902344 163.050781 203.574219 164.285156 203.25 165.503906 C 203.15625 165.855469 202.898438 166.242188 202.582031 166.558594 C 202.265625 166.875 201.886719 167.121094 201.546875 167.195312 C 201.320312 167.242188 200.996094 167.035156 200.679688 166.738281 C 200.359375 166.441406 200.050781 166.054688 199.851562 165.734375 C 199.589844 165.316406 199.355469 164.867188 199.164062 164.398438 C 198.972656 163.929688 198.824219 163.445312 198.730469 162.964844 C 198.160156 159.960938 197.625 156.953125 197.082031 153.949219 C 196.542969 150.941406 195.996094 147.933594 195.414062 144.9375 C 195.128906 143.46875 194.84375 141.992188 194.503906 140.527344 C 194.164062 139.070312 193.769531 137.625 193.265625 136.226562 C 192.730469 134.738281 191.8125 133.757812 190.660156 133.285156 C 189.503906 132.8125 188.109375 132.847656 186.621094 133.394531 C 185.988281 133.625 185.375 133.914062 184.769531 134.21875 C 184.164062 134.523438 183.558594 134.839844 182.945312 135.125 C 180.472656 136.273438 177.976562 136.964844 175.4375 137.164062 C 172.898438 137.359375 170.320312 137.066406 167.671875 136.238281 C 164.746094 135.320312 161.804688 134.46875 158.820312 133.785156 C 155.839844 133.097656 152.820312 132.578125 149.746094 132.320312 C 148.980469 132.257812 148.15625 132.144531 147.417969 132.246094 C 146.679688 132.347656 146.027344 132.660156 145.613281 133.457031 C 145.175781 134.285156 145.320312 135.003906 145.699219 135.652344 C 146.074219 136.304688 146.6875 136.882812 147.195312 137.4375 C 148.367188 138.71875 149.554688 139.988281 150.75 141.25 C 151.949219 142.507812 153.152344 143.761719 154.367188 145.007812 C 155.769531 146.453125 156.855469 148.019531 157.558594 149.734375 C 158.257812 151.449219 158.566406 153.3125 158.421875 155.359375 C 158.246094 157.8125 159.097656 159.34375 160.429688 160.210938 C 161.761719 161.074219 163.578125 161.277344 165.332031 161.074219 C 166.242188 160.964844 166.941406 160.65625 167.410156 160.148438 C 167.878906 159.636719 168.117188 158.921875 168.105469 158.003906 C 168.089844 156.800781 168.035156 155.597656 167.957031 154.398438 C 167.878906 153.195312 167.78125 151.992188 167.671875 150.792969 C 167.613281 150.125 167.535156 149.449219 167.421875 148.78125 C 167.308594 148.113281 167.160156 147.457031 166.960938 146.816406 C 166.921875 146.695312 166.84375 146.59375 166.734375 146.496094 C 166.714844 146.480469 166.554688 146.320312 166.347656 146.234375 C 165.960938 146.078125 165.386719 146.164062 165.074219 146.542969 C 164.851562 146.8125 164.851562 147.132812 164.839844 147.351562 C 164.820312 147.628906 164.90625 147.910156 165 148.191406 C 165.097656 148.476562 165.207031 148.761719 165.246094 149.050781 C 165.445312 150.382812 165.671875 151.71875 165.867188 153.054688 C 166.066406 154.390625 166.238281 155.726562 166.335938 157.070312 C 166.40625 158.0625 166.253906 158.683594 165.835938 159.03125 C 165.417969 159.378906 164.730469 159.457031 163.734375 159.355469 C 162.371094 159.21875 161.460938 158.953125 160.910156 158.382812 C 160.355469 157.8125 160.164062 156.933594 160.234375 155.5625 C 160.359375 153.152344 159.980469 150.972656 159.160156 148.976562 C 158.335938 146.976562 157.070312 145.164062 155.414062 143.488281 C 154.421875 142.480469 153.4375 141.46875 152.457031 140.445312 C 151.476562 139.425781 150.503906 138.398438 149.539062 137.367188 C 149.128906 136.929688 148.742188 136.46875 148.335938 135.96875 C 147.925781 135.46875 147.5 134.929688 147.007812 134.339844 C 147.410156 134.300781 147.707031 134.265625 147.953125 134.242188 C 148.199219 134.214844 148.394531 134.199219 148.589844 134.203125 C 151.722656 134.28125 154.785156 134.742188 157.800781 135.421875 C 160.816406 136.101562 163.78125 137.003906 166.714844 137.957031 C 169.882812 138.988281 172.917969 139.3125 175.886719 139.011719 C 178.855469 138.714844 181.75 137.789062 184.625 136.324219 C 185.070312 136.097656 185.519531 135.867188 185.972656 135.652344 C 186.425781 135.4375 186.886719 135.242188 187.355469 135.082031 C 188.394531 134.726562 189.269531 134.691406 189.984375 134.996094 C 190.699219 135.300781 191.253906 135.949219 191.644531 136.960938 C 191.984375 137.832031 192.289062 138.726562 192.546875 139.636719 C 192.804688 140.542969 193.015625 141.460938 193.167969 142.382812 C 193.597656 144.964844 193.949219 147.5625 194.316406 150.15625 C 194.582031 152.046875 194.910156 154 195.570312 157.90625 C 195.570312 157.90625 195.867188 159.636719 196.464844 162.09375 C 196.90625 163.910156 197.21875 164.886719 197.796875 165.96875 C 198.171875 166.667969 198.75 167.585938 199.691406 168.316406 C 200.1875 168.703125 200.75 168.988281 201.398438 169.121094 C 202.15625 169.273438 202.820312 169.039062 203.359375 168.59375 C 203.898438 168.152344 204.316406 167.496094 204.582031 166.804688 C 204.878906 166.039062 205.140625 165.257812 205.363281 164.460938 C 205.585938 163.667969 205.773438 162.863281 205.921875 162.058594 C 206.828125 157.199219 207.265625 152.304688 207.511719 147.398438 C 207.757812 142.488281 207.8125 137.570312 207.949219 132.664062 C 208.042969 129.328125 208.597656 126.371094 209.832031 123.777344 C 211.070312 121.183594 212.992188 118.949219 215.816406 117.058594 C 218.585938 115.210938 221.316406 113.296875 224.019531 111.351562 C 226.726562 109.40625 229.410156 107.425781 232.082031 105.4375 C 233.140625 104.65625 234.175781 103.824219 235.164062 102.9375 C 236.152344 102.054688 237.085938 101.113281 237.933594 100.117188 C 238.859375 99.023438 239.285156 97.808594 239.28125 96.59375 Z M 239.277344 96.597656 " fill-opacity="1" fill-rule="nonzero"/></g></g></g></g><g clip-path="url(#3aa9ae2a18)"><g clip-path="url(#5ba176210b)"><g clip-path="url(#679955ab4a)"><path fill="#3d3b3a" d="M 172.703125 204.261719 C 173.984375 204.539062 175.265625 204.789062 176.554688 205.003906 C 177.847656 205.21875 179.140625 205.40625 180.4375 205.558594 C 181.738281 205.710938 183.039062 205.832031 184.34375 205.921875 C 185.648438 206.015625 186.953125 206.070312 188.257812 206.097656 C 189.566406 206.125 190.875 206.121094 192.179688 206.085938 C 193.484375 206.046875 194.789062 205.980469 196.09375 205.878906 C 197.398438 205.78125 198.695312 205.648438 199.992188 205.484375 C 201.289062 205.324219 202.582031 205.128906 203.867188 204.902344 C 205.15625 204.675781 206.4375 204.421875 207.710938 204.132812 C 208.984375 203.84375 210.25 203.527344 211.507812 203.175781 C 212.769531 202.828125 214.019531 202.445312 215.257812 202.035156 C 216.496094 201.625 217.726562 201.1875 218.945312 200.71875 C 220.164062 200.246094 221.371094 199.746094 222.566406 199.21875 C 223.757812 198.691406 224.941406 198.132812 226.109375 197.546875 C 227.273438 196.960938 228.425781 196.347656 229.566406 195.707031 C 230.703125 195.066406 231.824219 194.394531 232.925781 193.699219 C 234.03125 193.003906 235.121094 192.28125 236.1875 191.53125 C 237.257812 190.78125 238.308594 190.007812 239.34375 189.207031 C 240.375 188.40625 241.386719 187.582031 242.378906 186.730469 C 243.371094 185.882812 244.339844 185.007812 245.289062 184.113281 C 246.238281 183.214844 247.167969 182.296875 248.070312 181.351562 C 248.976562 180.410156 249.859375 179.449219 250.714844 178.464844 C 251.574219 177.476562 252.40625 176.472656 253.21875 175.449219 C 254.027344 174.421875 254.8125 173.378906 255.570312 172.3125 C 256.328125 171.25 257.0625 170.167969 257.765625 169.070312 C 258.472656 167.96875 259.152344 166.855469 259.804688 165.722656 C 260.457031 164.589844 261.082031 163.441406 261.675781 162.277344 C 262.273438 161.117188 262.84375 159.9375 263.382812 158.746094 C 263.921875 157.558594 264.429688 156.355469 264.914062 155.136719 C 265.394531 153.921875 265.84375 152.695312 266.265625 151.457031 C 266.6875 150.21875 267.078125 148.972656 267.441406 147.714844 C 267.800781 146.460938 268.132812 145.195312 268.433594 143.921875 C 273.375 123.171875 270.128906 101.695312 259.296875 83.460938 C 259.183594 83.292969 259.03125 83.191406 258.835938 83.144531 C 258.640625 83.101562 258.457031 83.132812 258.285156 83.234375 C 258.113281 83.335938 258 83.484375 257.945312 83.675781 C 257.890625 83.867188 257.910156 84.054688 258 84.230469 C 279.894531 121.09375 268.28125 169.625 232.121094 192.417969 C 195.960938 215.210938 147.164062 204.753906 123.351562 169.105469 C 123.230469 168.945312 123.070312 168.847656 122.875 168.816406 C 122.675781 168.78125 122.496094 168.820312 122.328125 168.929688 C 122.164062 169.042969 122.058594 169.195312 122.011719 169.390625 C 121.96875 169.585938 121.996094 169.769531 122.097656 169.941406 C 133.878906 187.582031 151.851562 199.769531 172.703125 204.261719 Z M 172.703125 204.261719 " fill-opacity="1" fill-rule="evenodd"/></g></g></g></svg>